<?xml version="1.0" standalone="no"?>
<!DOCTYPE svg PUBLIC "-//W3C//DTD SVG 20010904//EN"
 "http://www.w3.org/TR/2001/REC-SVG-20010904/DTD/svg10.dtd">
<svg version="1.0" xmlns="http://www.w3.org/2000/svg"
 width="1500.000000pt" height="1500.000000pt" viewBox="0 0 1500.000000 1500.000000"
 preserveAspectRatio="xMidYMid meet">
<metadata>
Created by potrace 1.11, written by Peter Selinger 2001-2013
</metadata>
<g transform="translate(0.000000,1500.000000) scale(0.100000,-0.100000)"
fill="#000000" stroke="none">
<path d="M5358 11995 c-1 -1 -95 -6 -208 -10 -187 -6 -242 -10 -262 -22 -10
-5 -162 -16 -208 -15 -26 1 -31 -2 -20 -9 11 -8 8 -9 -12 -5 -15 4 -43 0 -61
-8 -18 -7 -50 -12 -70 -11 -20 2 -37 0 -37 -4 0 -5 -31 -11 -70 -13 -38 -3
-76 -11 -84 -18 -9 -7 -27 -9 -45 -5 -22 5 -34 1 -49 -15 -14 -15 -27 -20 -40
-16 -11 4 -36 0 -55 -8 -19 -8 -67 -20 -106 -27 -39 -7 -71 -18 -71 -24 0 -5
-21 -11 -47 -13 -26 -2 -51 -8 -55 -15 -4 -6 -10 -8 -14 -4 -4 4 -12 3 -18 -2
-6 -5 -31 -14 -56 -21 -25 -7 -47 -16 -50 -20 -3 -4 -18 -10 -35 -13 -34 -6
-89 -32 -124 -59 -13 -10 -33 -18 -45 -18 -19 0 -47 -11 -155 -63 -13 -7 -29
-12 -35 -12 -9 0 -40 -16 -106 -54 -24 -14 -143 -69 -163 -75 -10 -3 -16 -10
-13 -15 3 -4 -12 -16 -33 -26 -21 -9 -48 -30 -60 -46 -12 -16 -30 -29 -41 -29
-11 0 -20 -4 -20 -10 0 -5 -8 -10 -18 -10 -10 0 -36 -18 -57 -41 -22 -23 -59
-49 -82 -60 -23 -10 -48 -27 -55 -38 -7 -12 -21 -21 -31 -21 -13 0 -17 -5 -13
-15 4 -11 -1 -15 -19 -15 -15 0 -25 -6 -25 -15 0 -8 -13 -24 -29 -36 -16 -11
-35 -32 -42 -45 -7 -14 -19 -22 -26 -19 -8 3 -21 -7 -31 -25 -9 -16 -20 -30
-24 -30 -3 0 -23 -24 -44 -52 -21 -29 -50 -65 -66 -80 -15 -15 -34 -41 -43
-57 -8 -16 -23 -36 -33 -43 -21 -16 -74 -100 -93 -148 -7 -19 -26 -48 -41 -65
-20 -21 -27 -37 -23 -52 3 -13 1 -23 -4 -23 -15 0 -57 -91 -82 -180 -13 -47
-26 -87 -29 -90 -3 -3 -6 -24 -8 -47 -5 -58 -6 -66 -16 -81 -4 -7 -8 -80 -8
-161 0 -111 3 -155 15 -177 25 -49 29 -88 12 -120 -23 -44 -25 -37 45 -159 13
-22 31 -49 40 -60 27 -32 57 -90 65 -123 3 -16 15 -38 26 -48 10 -9 19 -25 19
-34 0 -10 7 -20 15 -24 8 -3 15 -12 15 -20 0 -8 19 -43 43 -78 24 -35 49 -75
57 -91 7 -15 42 -60 77 -100 77 -87 83 -95 83 -102 0 -3 36 -41 81 -85 68 -68
78 -82 70 -98 -6 -11 -7 -22 -4 -26 3 -3 0 -24 -7 -47 -11 -32 -11 -47 -2 -72
6 -17 8 -33 3 -36 -9 -7 -9 -41 1 -57 4 -6 10 -55 13 -110 4 -54 11 -113 16
-129 5 -17 8 -53 7 -80 -2 -51 19 -135 33 -135 12 0 18 -47 29 -250 6 -102 16
-216 22 -255 6 -38 11 -81 12 -95 0 -14 3 -27 6 -30 12 -9 36 -160 29 -172 -4
-7 -4 -18 2 -24 10 -12 28 -218 29 -327 0 -61 -2 -70 -20 -74 -11 -3 -23 -16
-26 -28 -10 -39 -11 -187 -2 -257 5 -36 11 -115 13 -175 5 -163 16 -256 29
-273 7 -8 13 -28 14 -45 3 -46 43 -217 58 -247 8 -15 14 -40 14 -57 0 -16 5
-33 11 -36 5 -4 9 -14 7 -23 -2 -9 5 -25 14 -34 10 -10 19 -33 20 -50 1 -39 3
-47 12 -73 5 -11 12 -32 18 -47 6 -15 14 -25 19 -23 4 3 11 -11 14 -32 7 -45
46 -124 57 -117 4 3 8 -5 8 -17 0 -25 59 -149 71 -149 4 0 10 -14 14 -30 4
-18 11 -27 18 -23 6 4 8 0 4 -9 -3 -9 2 -23 13 -33 11 -10 22 -26 26 -37 3
-10 16 -30 30 -45 13 -14 24 -34 24 -44 0 -11 6 -19 14 -19 15 0 26 -21 26
-50 0 -10 9 -22 21 -25 11 -4 27 -22 35 -41 8 -19 21 -37 29 -40 8 -4 25 -23
37 -45 11 -21 25 -36 29 -33 4 2 10 -5 14 -16 3 -11 10 -20 14 -20 4 0 13 -12
19 -26 7 -14 16 -23 21 -20 5 3 17 -6 26 -21 26 -39 150 -160 196 -190 21 -14
41 -33 44 -43 3 -9 17 -22 31 -29 15 -6 24 -15 20 -18 -3 -3 22 -23 57 -44 34
-21 67 -43 74 -49 7 -5 18 -9 25 -8 7 2 12 -3 10 -9 -1 -7 7 -13 18 -13 10 0
36 -16 55 -36 24 -24 43 -34 55 -31 12 3 20 -1 22 -12 2 -9 12 -16 23 -16 11
0 19 -6 17 -12 -1 -7 4 -13 12 -13 8 0 40 -14 71 -31 31 -17 59 -29 62 -26 2
3 18 1 35 -5 22 -8 26 -13 16 -19 -9 -6 -6 -9 10 -9 13 0 38 -7 55 -16 60 -31
67 -34 87 -34 11 0 20 -4 20 -8 0 -5 17 -14 37 -20 29 -9 39 -9 45 1 6 9 8 9
8 0 0 -7 16 -15 35 -19 19 -3 38 -10 41 -15 3 -5 12 -9 21 -9 8 0 29 -6 46
-14 18 -8 46 -17 62 -20 17 -4 41 -9 55 -12 14 -3 32 -7 40 -8 8 0 21 -6 27
-13 7 -6 22 -9 33 -6 12 3 20 0 20 -6 0 -7 4 -10 9 -7 4 3 23 1 42 -5 40 -12
132 -27 208 -35 30 -2 60 -9 66 -14 7 -5 32 -12 56 -16 24 -3 55 -8 69 -11 14
-2 45 -7 70 -10 25 -2 50 -11 56 -18 11 -15 45 -15 56 -1 3 5 18 5 35 -2 15
-6 51 -13 78 -16 81 -9 101 -13 113 -20 7 -4 12 -2 12 4 0 12 69 3 85 -11 13
-12 38 -11 30 1 -4 6 5 10 19 10 14 0 26 -6 26 -12 0 -9 2 -10 8 -2 4 6 18 10
32 7 14 -2 36 -5 50 -6 14 -1 28 -6 32 -11 4 -6 12 -5 21 3 10 8 17 8 21 2 4
-6 26 -10 49 -10 54 -1 97 -6 120 -16 12 -5 17 -3 17 8 0 14 4 15 40 2 23 -8
38 -11 35 -6 -2 5 11 11 31 13 19 2 37 1 40 -3 2 -4 13 -6 24 -4 11 2 20 0 20
-4 0 -4 28 -4 62 0 35 4 67 5 72 2 5 -4 6 -1 2 5 -4 7 14 11 56 11 35 0 89 3
121 6 41 5 57 3 57 -6 0 -8 4 -9 13 0 22 18 89 25 98 9 7 -10 9 -9 9 5 0 9 5
17 11 17 5 0 7 -5 4 -10 -3 -6 1 -10 9 -10 10 0 13 6 10 15 -5 13 -2 13 31 -1
30 -12 41 -13 65 -2 16 7 26 16 24 20 -3 4 -1 8 5 8 5 0 11 -6 14 -12 4 -10 7
-10 18 0 7 6 28 12 46 12 18 0 33 3 33 8 0 4 12 7 28 8 49 2 91 10 104 22 8 6
26 9 41 8 15 -2 31 2 36 8 6 7 33 12 61 11 33 -1 50 3 50 11 0 7 11 11 26 9
15 -1 28 3 31 11 3 8 18 14 34 14 17 0 48 9 69 20 22 11 40 16 40 11 0 -5 -6
-12 -12 -14 -7 -3 -3 -6 10 -6 13 -1 21 3 18 8 -4 5 7 12 23 16 32 7 93 36
118 57 9 7 17 12 17 11 2 -6 46 10 46 17 0 10 47 30 70 30 11 0 20 4 20 8 0 4
8 9 18 10 40 4 57 10 55 20 -1 5 8 10 21 10 13 -1 44 14 69 31 25 17 52 31 61
31 8 0 18 5 21 10 3 6 15 10 26 10 10 0 18 6 17 12 -2 7 6 13 17 13 11 0 24 6
28 13 5 7 12 10 16 8 4 -3 17 4 29 14 12 11 26 20 32 20 5 0 10 4 10 8 0 5 12
15 28 23 15 7 41 24 58 36 17 13 35 23 40 23 5 0 15 9 22 20 7 11 20 20 30 20
9 0 30 11 46 25 16 13 33 22 38 19 5 -3 12 3 15 15 3 12 13 21 24 21 11 0 19
5 19 10 0 6 7 10 15 10 8 0 15 9 15 20 0 11 6 20 14 20 8 0 17 7 20 16 4 10
14 14 25 11 11 -2 24 3 32 14 7 11 19 19 26 19 7 0 13 9 13 21 0 11 4 18 8 15
5 -3 25 10 45 29 21 19 41 35 46 35 5 0 12 9 16 19 3 10 15 21 26 24 11 3 19
9 18 14 -3 19 2 33 12 33 6 0 8 -8 5 -17 -5 -14 -3 -14 9 2 36 49 55 66 66 59
7 -4 9 -3 6 3 -4 6 0 13 8 17 8 3 15 11 15 18 0 17 60 70 60 55 1 -7 7 3 15
20 8 18 19 33 25 33 5 0 10 9 10 20 0 11 7 20 16 20 8 0 13 4 10 8 -3 5 8 19
24 31 17 12 30 26 30 32 0 6 19 30 43 54 23 24 58 64 77 90 19 25 42 54 52 64
9 11 19 29 23 40 3 12 17 29 31 37 13 9 24 23 24 30 0 8 4 14 8 14 4 0 13 14
19 31 7 17 20 33 30 35 10 3 25 19 32 36 8 17 29 46 48 64 18 18 40 49 48 68
9 20 21 36 28 36 7 0 27 25 45 55 18 31 38 53 43 50 5 -4 9 2 9 12 0 10 14 31
30 46 16 16 26 35 24 42 -3 7 4 15 15 18 13 3 21 13 21 26 0 12 3 21 8 21 4 0
18 18 31 40 14 21 28 37 33 34 4 -3 5 2 2 10 -3 9 -1 16 5 16 6 0 11 7 11 15
0 9 16 31 35 51 19 19 35 42 35 52 0 13 2 14 9 4 6 -10 11 -6 19 17 6 17 18
31 26 31 9 0 18 13 22 35 3 20 12 35 20 35 8 0 14 4 14 9 0 4 11 20 25 35 13
14 25 30 26 34 0 4 5 6 10 4 5 -1 9 5 9 13 0 8 5 15 10 15 6 0 10 6 10 14 0
25 54 106 68 101 6 -2 12 2 12 10 0 8 7 15 15 15 14 0 48 43 51 64 3 27 17 55
30 60 8 3 14 13 14 23 0 16 2 16 11 3 9 -12 10 -11 6 8 -4 15 -1 22 11 22 8 0
12 3 9 7 -4 3 4 21 18 39 14 18 25 37 25 43 0 5 9 12 19 16 11 3 23 14 26 24
8 27 41 62 59 65 9 1 22 10 29 20 7 9 46 26 86 36 41 11 79 24 85 29 6 5 36
13 66 19 53 10 207 72 219 89 3 4 17 10 31 11 38 6 90 33 90 47 0 7 12 17 28
23 15 5 37 19 50 31 12 12 22 19 22 16 0 -5 23 15 68 58 12 12 22 18 22 13 0
-8 41 27 138 117 17 16 32 34 32 39 0 5 19 29 41 53 23 24 48 57 56 72 8 15
26 44 41 63 37 48 102 185 102 216 0 8 9 34 21 57 18 37 22 67 28 239 4 135
10 201 19 210 6 6 12 20 12 30 0 10 5 18 10 18 6 0 10 8 10 18 0 9 6 28 14 42
7 14 24 45 37 70 13 25 38 66 56 91 18 26 33 51 33 58 0 6 5 11 10 11 6 0 10
9 10 19 0 11 4 21 9 23 5 2 27 39 50 83 23 44 55 103 70 130 16 28 52 96 81
153 29 56 55 102 59 102 7 0 23 30 60 115 41 90 56 120 64 123 4 2 7 11 7 21
0 9 9 34 20 56 11 22 20 50 20 62 0 13 5 23 10 23 6 0 10 9 10 20 0 12 9 49
19 83 28 91 51 232 51 307 0 170 -49 386 -108 480 -12 19 -22 39 -22 44 0 11
-79 108 -97 119 -7 4 -13 15 -13 22 0 8 -7 15 -15 15 -8 0 -15 7 -15 17 0 9
-3 14 -6 10 -3 -3 -28 12 -56 33 -27 22 -66 47 -86 57 -20 9 -39 19 -42 23 -5
6 -122 49 -155 57 -11 3 -34 11 -52 19 -17 8 -42 14 -55 14 -14 0 -28 3 -32 8
-4 4 -20 8 -34 9 -15 1 -67 11 -117 22 -49 10 -112 22 -140 24 -27 3 -79 11
-115 17 -36 6 -83 13 -105 15 -22 1 -65 5 -95 9 -30 3 -97 8 -148 11 -53 3
-105 11 -122 20 -16 8 -62 17 -102 20 -81 6 -101 8 -208 30 -41 9 -103 20
-138 25 -35 5 -68 12 -74 16 -6 4 -41 11 -77 15 -87 11 -228 34 -321 53 -41 9
-114 20 -161 26 -47 5 -114 19 -150 30 -35 11 -86 20 -112 20 -27 0 -57 4 -67
10 -10 5 -43 12 -73 14 -30 2 -60 6 -65 10 -6 3 -28 8 -49 11 -21 2 -49 6 -63
9 -14 3 -60 10 -103 15 -43 6 -106 20 -140 31 -33 11 -85 21 -114 21 -36 1
-50 5 -46 13 4 6 0 6 -9 -2 -12 -10 -23 -9 -57 3 -43 15 -200 43 -307 54 -34
3 -69 12 -78 20 -9 7 -25 11 -36 8 -11 -3 -20 -2 -20 2 0 4 -22 7 -50 6 -27
-1 -50 2 -50 7 0 4 -17 8 -38 8 -21 0 -42 4 -48 9 -13 12 -104 35 -111 28 -3
-4 -15 -2 -25 4 -11 6 -42 11 -69 11 -27 -1 -49 3 -49 9 0 5 -14 9 -31 9 -17
0 -43 6 -57 14 -25 13 -66 23 -197 47 -27 5 -59 14 -70 19 -11 4 -42 16 -70
25 -27 10 -57 20 -65 23 -8 3 -22 6 -30 8 -33 6 -136 39 -159 51 -14 6 -28 10
-33 7 -4 -3 -8 0 -8 5 0 6 -11 11 -24 11 -13 0 -29 7 -36 15 -7 9 -18 14 -24
12 -6 -2 -27 4 -46 14 -20 9 -60 24 -90 32 -87 24 -205 68 -208 78 -2 5 -13 9
-23 9 -13 0 -18 4 -13 12 4 7 3 8 -4 4 -16 -10 -133 24 -139 40 -3 8 -21 16
-41 19 -50 8 -110 24 -147 40 -45 18 -164 54 -231 69 -59 14 -114 31 -146 47
-10 5 -30 9 -45 9 -16 0 -47 7 -70 15 -23 8 -49 12 -57 9 -8 -3 -25 1 -38 10
-12 9 -38 16 -58 16 -19 0 -51 4 -70 10 -38 10 -220 40 -285 46 -22 2 -85 9
-140 15 -55 5 -136 12 -180 15 -44 2 -85 6 -92 9 -6 2 -13 2 -15 0z"/>
<path d="M4348 3743 c7 -3 16 -2 19 1 4 3 -2 6 -13 5 -11 0 -14 -3 -6 -6z"/>
</g>
</svg>
